# xmcd
#
# Track frame offsets:
# 150
# 14185
# 43678
# 63620
# 101544
# 121601
#
# Disc length: 2001 seconds
#
# Revision: 1
# Processed by: cddbd v1.5.2PL0 Copyright (c) Steve Scherf et al.
# Submitted via: CedeCatalogueitor 2.6.0.6 http://personales.ya.com/cdcatalogueitor
#
DISCID=4d07cf06
DTITLE=Ocelot - Beating Hearts
DYEAR=1900
DGENRE=
TTITLE0=Beating Hearts
TTITLE1=Beating Hearts - Soundforce Rmx
TTITLE2=Beating Hearts - Blende Vocal Rmx
TTITLE3=Beating Hearts - Seismal D Rmx
TTITLE4=Beating Hearts - Louis La Roche Rmx
TTITLE5=Beating Hearts - Extended Club Mix
EXTD=
EXTT0=
EXTT1=
EXTT2=
EXTT3=
EXTT4=
EXTT5=
PLAYORDER=
